<mxfile host="app.diagrams.net" agent="Mozilla/5.0 (Windows NT 10.0; Win64; x64) AppleWebKit/537.36 (KHTML, like Gecko) Chrome/134.0.0.0 Safari/537.36" version="26.0.16">
  <diagram name="Página-1" id="TAAVMQNEenFh6iYZSoj8">
    <mxGraphModel dx="1434" dy="772" grid="1" gridSize="10" guides="1" tooltips="1" connect="1" arrows="1" fold="1" page="1" pageScale="1" pageWidth="827" pageHeight="1169" math="0" shadow="0">
      <root>
        <mxCell id="0" />
        <mxCell id="1" parent="0" />
        <mxCell id="2-5TmImaTZxjPBu9fnjU-5" style="edgeStyle=orthogonalEdgeStyle;rounded=0;orthogonalLoop=1;jettySize=auto;html=1;entryX=0;entryY=0.5;entryDx=0;entryDy=0;" edge="1" parent="1" source="2-5TmImaTZxjPBu9fnjU-1" target="2-5TmImaTZxjPBu9fnjU-2">
          <mxGeometry relative="1" as="geometry" />
        </mxCell>
        <mxCell id="2-5TmImaTZxjPBu9fnjU-1" value="inicio" style="ellipse;whiteSpace=wrap;html=1;" vertex="1" parent="1">
          <mxGeometry x="90" y="760" width="100" height="80" as="geometry" />
        </mxCell>
        <mxCell id="2-5TmImaTZxjPBu9fnjU-7" style="edgeStyle=orthogonalEdgeStyle;rounded=0;orthogonalLoop=1;jettySize=auto;html=1;entryX=0.5;entryY=1;entryDx=0;entryDy=0;" edge="1" parent="1" source="2-5TmImaTZxjPBu9fnjU-2" target="2-5TmImaTZxjPBu9fnjU-4">
          <mxGeometry relative="1" as="geometry" />
        </mxCell>
        <mxCell id="2-5TmImaTZxjPBu9fnjU-8" style="edgeStyle=orthogonalEdgeStyle;rounded=0;orthogonalLoop=1;jettySize=auto;html=1;entryX=0;entryY=0.5;entryDx=0;entryDy=0;" edge="1" parent="1" source="2-5TmImaTZxjPBu9fnjU-2" target="2-5TmImaTZxjPBu9fnjU-3">
          <mxGeometry relative="1" as="geometry" />
        </mxCell>
        <mxCell id="2-5TmImaTZxjPBu9fnjU-13" style="edgeStyle=orthogonalEdgeStyle;rounded=0;orthogonalLoop=1;jettySize=auto;html=1;entryX=0.5;entryY=0;entryDx=0;entryDy=0;" edge="1" parent="1" source="2-5TmImaTZxjPBu9fnjU-2" target="2-5TmImaTZxjPBu9fnjU-12">
          <mxGeometry relative="1" as="geometry" />
        </mxCell>
        <mxCell id="2-5TmImaTZxjPBu9fnjU-28" value="" style="edgeStyle=orthogonalEdgeStyle;rounded=0;orthogonalLoop=1;jettySize=auto;html=1;" edge="1" parent="1" source="2-5TmImaTZxjPBu9fnjU-2" target="2-5TmImaTZxjPBu9fnjU-27">
          <mxGeometry relative="1" as="geometry" />
        </mxCell>
        <mxCell id="2-5TmImaTZxjPBu9fnjU-2" value="tela de listagem" style="rhombus;whiteSpace=wrap;html=1;" vertex="1" parent="1">
          <mxGeometry x="290" y="760" width="80" height="80" as="geometry" />
        </mxCell>
        <mxCell id="2-5TmImaTZxjPBu9fnjU-3" value="editar opção" style="rounded=0;whiteSpace=wrap;html=1;" vertex="1" parent="1">
          <mxGeometry x="444" y="770" width="120" height="60" as="geometry" />
        </mxCell>
        <mxCell id="2-5TmImaTZxjPBu9fnjU-9" style="edgeStyle=orthogonalEdgeStyle;rounded=0;orthogonalLoop=1;jettySize=auto;html=1;" edge="1" parent="1" source="2-5TmImaTZxjPBu9fnjU-4" target="2-5TmImaTZxjPBu9fnjU-10">
          <mxGeometry relative="1" as="geometry">
            <mxPoint x="340" y="600" as="targetPoint" />
          </mxGeometry>
        </mxCell>
        <mxCell id="2-5TmImaTZxjPBu9fnjU-4" value="alterar status" style="rounded=0;whiteSpace=wrap;html=1;" vertex="1" parent="1">
          <mxGeometry x="270" y="670" width="120" height="60" as="geometry" />
        </mxCell>
        <mxCell id="2-5TmImaTZxjPBu9fnjU-15" value="" style="edgeStyle=orthogonalEdgeStyle;rounded=0;orthogonalLoop=1;jettySize=auto;html=1;" edge="1" parent="1" source="2-5TmImaTZxjPBu9fnjU-10" target="2-5TmImaTZxjPBu9fnjU-14">
          <mxGeometry relative="1" as="geometry" />
        </mxCell>
        <mxCell id="2-5TmImaTZxjPBu9fnjU-10" value="fazer a requisiçao com o comando altera_status" style="rounded=0;whiteSpace=wrap;html=1;" vertex="1" parent="1">
          <mxGeometry x="270" y="580" width="120" height="60" as="geometry" />
        </mxCell>
        <mxCell id="2-5TmImaTZxjPBu9fnjU-12" value="excluir" style="rounded=0;whiteSpace=wrap;html=1;" vertex="1" parent="1">
          <mxGeometry x="600" y="890" width="120" height="60" as="geometry" />
        </mxCell>
        <mxCell id="2-5TmImaTZxjPBu9fnjU-17" value="" style="edgeStyle=orthogonalEdgeStyle;rounded=0;orthogonalLoop=1;jettySize=auto;html=1;" edge="1" parent="1" source="2-5TmImaTZxjPBu9fnjU-14" target="2-5TmImaTZxjPBu9fnjU-16">
          <mxGeometry relative="1" as="geometry" />
        </mxCell>
        <mxCell id="2-5TmImaTZxjPBu9fnjU-14" value="recebimento de valores e tratamento de dados&amp;nbsp;" style="rounded=0;whiteSpace=wrap;html=1;" vertex="1" parent="1">
          <mxGeometry x="270" y="490" width="120" height="60" as="geometry" />
        </mxCell>
        <mxCell id="2-5TmImaTZxjPBu9fnjU-21" style="edgeStyle=orthogonalEdgeStyle;rounded=0;orthogonalLoop=1;jettySize=auto;html=1;" edge="1" parent="1" source="2-5TmImaTZxjPBu9fnjU-16" target="2-5TmImaTZxjPBu9fnjU-20">
          <mxGeometry relative="1" as="geometry" />
        </mxCell>
        <mxCell id="2-5TmImaTZxjPBu9fnjU-16" value="criar comando sql" style="rounded=0;whiteSpace=wrap;html=1;" vertex="1" parent="1">
          <mxGeometry x="420" y="410" width="120" height="60" as="geometry" />
        </mxCell>
        <mxCell id="2-5TmImaTZxjPBu9fnjU-22" style="edgeStyle=orthogonalEdgeStyle;rounded=0;orthogonalLoop=1;jettySize=auto;html=1;" edge="1" parent="1" source="2-5TmImaTZxjPBu9fnjU-20" target="2-5TmImaTZxjPBu9fnjU-23">
          <mxGeometry relative="1" as="geometry">
            <mxPoint x="580" y="320" as="targetPoint" />
          </mxGeometry>
        </mxCell>
        <mxCell id="2-5TmImaTZxjPBu9fnjU-25" value="" style="edgeStyle=orthogonalEdgeStyle;rounded=0;orthogonalLoop=1;jettySize=auto;html=1;" edge="1" parent="1" source="2-5TmImaTZxjPBu9fnjU-20" target="2-5TmImaTZxjPBu9fnjU-24">
          <mxGeometry relative="1" as="geometry" />
        </mxCell>
        <mxCell id="2-5TmImaTZxjPBu9fnjU-20" value="execução do comando&amp;nbsp;" style="rhombus;whiteSpace=wrap;html=1;" vertex="1" parent="1">
          <mxGeometry x="440" y="280" width="80" height="80" as="geometry" />
        </mxCell>
        <mxCell id="2-5TmImaTZxjPBu9fnjU-23" value="passa mensagem de erro" style="rounded=0;whiteSpace=wrap;html=1;" vertex="1" parent="1">
          <mxGeometry x="620" y="320" width="120" height="60" as="geometry" />
        </mxCell>
        <mxCell id="2-5TmImaTZxjPBu9fnjU-24" value="realiza o cadastro e informa que o cadastro foi realizado" style="whiteSpace=wrap;html=1;" vertex="1" parent="1">
          <mxGeometry x="420" y="130" width="120" height="60" as="geometry" />
        </mxCell>
        <mxCell id="2-5TmImaTZxjPBu9fnjU-30" value="" style="edgeStyle=orthogonalEdgeStyle;rounded=0;orthogonalLoop=1;jettySize=auto;html=1;" edge="1" parent="1" source="2-5TmImaTZxjPBu9fnjU-27" target="2-5TmImaTZxjPBu9fnjU-29">
          <mxGeometry relative="1" as="geometry" />
        </mxCell>
        <mxCell id="2-5TmImaTZxjPBu9fnjU-27" value="cadastrar opção" style="whiteSpace=wrap;html=1;" vertex="1" parent="1">
          <mxGeometry x="270" y="930" width="120" height="60" as="geometry" />
        </mxCell>
        <mxCell id="2-5TmImaTZxjPBu9fnjU-29" value="abrir modal" style="whiteSpace=wrap;html=1;" vertex="1" parent="1">
          <mxGeometry x="270" y="1020" width="120" height="60" as="geometry" />
        </mxCell>
        <mxCell id="2-5TmImaTZxjPBu9fnjU-36" value="" style="edgeStyle=orthogonalEdgeStyle;rounded=0;orthogonalLoop=1;jettySize=auto;html=1;" edge="1" parent="1" source="2-5TmImaTZxjPBu9fnjU-31" target="2-5TmImaTZxjPBu9fnjU-35">
          <mxGeometry relative="1" as="geometry" />
        </mxCell>
        <mxCell id="2-5TmImaTZxjPBu9fnjU-31" value="campos modal&lt;span style=&quot;white-space: pre;&quot;&gt;&#x9;&lt;/span&gt;" style="swimlane;fontStyle=0;childLayout=stackLayout;horizontal=1;startSize=30;horizontalStack=0;resizeParent=1;resizeParentMax=0;resizeLast=0;collapsible=1;marginBottom=0;whiteSpace=wrap;html=1;" vertex="1" parent="1">
          <mxGeometry x="260" y="1080" width="140" height="120" as="geometry" />
        </mxCell>
        <mxCell id="2-5TmImaTZxjPBu9fnjU-32" value="descrição(obrig)" style="text;strokeColor=none;fillColor=none;align=left;verticalAlign=middle;spacingLeft=4;spacingRight=4;overflow=hidden;points=[[0,0.5],[1,0.5]];portConstraint=eastwest;rotatable=0;whiteSpace=wrap;html=1;" vertex="1" parent="2-5TmImaTZxjPBu9fnjU-31">
          <mxGeometry y="30" width="140" height="30" as="geometry" />
        </mxCell>
        <mxCell id="2-5TmImaTZxjPBu9fnjU-33" value="nivel (obrig)" style="text;strokeColor=none;fillColor=none;align=left;verticalAlign=middle;spacingLeft=4;spacingRight=4;overflow=hidden;points=[[0,0.5],[1,0.5]];portConstraint=eastwest;rotatable=0;whiteSpace=wrap;html=1;" vertex="1" parent="2-5TmImaTZxjPBu9fnjU-31">
          <mxGeometry y="60" width="140" height="30" as="geometry" />
        </mxCell>
        <mxCell id="2-5TmImaTZxjPBu9fnjU-34" value="url" style="text;strokeColor=none;fillColor=none;align=left;verticalAlign=middle;spacingLeft=4;spacingRight=4;overflow=hidden;points=[[0,0.5],[1,0.5]];portConstraint=eastwest;rotatable=0;whiteSpace=wrap;html=1;" vertex="1" parent="2-5TmImaTZxjPBu9fnjU-31">
          <mxGeometry y="90" width="140" height="30" as="geometry" />
        </mxCell>
        <mxCell id="2-5TmImaTZxjPBu9fnjU-38" value="" style="edgeStyle=orthogonalEdgeStyle;rounded=0;orthogonalLoop=1;jettySize=auto;html=1;" edge="1" parent="1" source="2-5TmImaTZxjPBu9fnjU-35" target="2-5TmImaTZxjPBu9fnjU-37">
          <mxGeometry relative="1" as="geometry" />
        </mxCell>
        <mxCell id="2-5TmImaTZxjPBu9fnjU-42" value="" style="edgeStyle=orthogonalEdgeStyle;rounded=0;orthogonalLoop=1;jettySize=auto;html=1;" edge="1" parent="1" source="2-5TmImaTZxjPBu9fnjU-35" target="2-5TmImaTZxjPBu9fnjU-41">
          <mxGeometry relative="1" as="geometry" />
        </mxCell>
        <mxCell id="2-5TmImaTZxjPBu9fnjU-35" value="validação de campos" style="rhombus;whiteSpace=wrap;html=1;fontStyle=0;startSize=30;" vertex="1" parent="1">
          <mxGeometry x="290" y="1300" width="80" height="80" as="geometry" />
        </mxCell>
        <mxCell id="2-5TmImaTZxjPBu9fnjU-40" value="" style="edgeStyle=orthogonalEdgeStyle;rounded=0;orthogonalLoop=1;jettySize=auto;html=1;" edge="1" parent="1" source="2-5TmImaTZxjPBu9fnjU-37" target="2-5TmImaTZxjPBu9fnjU-39">
          <mxGeometry relative="1" as="geometry" />
        </mxCell>
        <mxCell id="2-5TmImaTZxjPBu9fnjU-37" value="fazer requisiçao ajax" style="whiteSpace=wrap;html=1;fontStyle=0;startSize=30;" vertex="1" parent="1">
          <mxGeometry x="270" y="1410" width="120" height="60" as="geometry" />
        </mxCell>
        <mxCell id="2-5TmImaTZxjPBu9fnjU-44" value="" style="edgeStyle=orthogonalEdgeStyle;rounded=0;orthogonalLoop=1;jettySize=auto;html=1;" edge="1" parent="1" source="2-5TmImaTZxjPBu9fnjU-39" target="2-5TmImaTZxjPBu9fnjU-43">
          <mxGeometry relative="1" as="geometry" />
        </mxCell>
        <mxCell id="2-5TmImaTZxjPBu9fnjU-39" value="recebimento de valores e tratmaneto de dados&amp;nbsp;" style="whiteSpace=wrap;html=1;fontStyle=0;startSize=30;" vertex="1" parent="1">
          <mxGeometry x="270" y="1510" width="120" height="60" as="geometry" />
        </mxCell>
        <mxCell id="2-5TmImaTZxjPBu9fnjU-54" style="edgeStyle=orthogonalEdgeStyle;rounded=0;orthogonalLoop=1;jettySize=auto;html=1;entryX=0;entryY=0.133;entryDx=0;entryDy=0;entryPerimeter=0;" edge="1" parent="1" source="2-5TmImaTZxjPBu9fnjU-41" target="2-5TmImaTZxjPBu9fnjU-31">
          <mxGeometry relative="1" as="geometry">
            <mxPoint x="170" y="1120" as="targetPoint" />
            <Array as="points">
              <mxPoint x="170" y="1255" />
              <mxPoint x="240" y="1255" />
              <mxPoint x="240" y="1096" />
            </Array>
          </mxGeometry>
        </mxCell>
        <mxCell id="2-5TmImaTZxjPBu9fnjU-41" value="mensagem informando o usuario" style="whiteSpace=wrap;html=1;fontStyle=0;startSize=30;" vertex="1" parent="1">
          <mxGeometry x="110" y="1310" width="120" height="60" as="geometry" />
        </mxCell>
        <mxCell id="2-5TmImaTZxjPBu9fnjU-46" value="" style="edgeStyle=orthogonalEdgeStyle;rounded=0;orthogonalLoop=1;jettySize=auto;html=1;" edge="1" parent="1" source="2-5TmImaTZxjPBu9fnjU-43" target="2-5TmImaTZxjPBu9fnjU-45">
          <mxGeometry relative="1" as="geometry" />
        </mxCell>
        <mxCell id="2-5TmImaTZxjPBu9fnjU-43" value="criar comando sql" style="whiteSpace=wrap;html=1;fontStyle=0;startSize=30;" vertex="1" parent="1">
          <mxGeometry x="270" y="1600" width="120" height="60" as="geometry" />
        </mxCell>
        <mxCell id="2-5TmImaTZxjPBu9fnjU-48" value="" style="edgeStyle=orthogonalEdgeStyle;rounded=0;orthogonalLoop=1;jettySize=auto;html=1;" edge="1" parent="1" source="2-5TmImaTZxjPBu9fnjU-45" target="2-5TmImaTZxjPBu9fnjU-47">
          <mxGeometry relative="1" as="geometry" />
        </mxCell>
        <mxCell id="2-5TmImaTZxjPBu9fnjU-49" value="nao" style="edgeLabel;html=1;align=center;verticalAlign=middle;resizable=0;points=[];" vertex="1" connectable="0" parent="2-5TmImaTZxjPBu9fnjU-48">
          <mxGeometry x="-0.15" y="-6" relative="1" as="geometry">
            <mxPoint y="-6" as="offset" />
          </mxGeometry>
        </mxCell>
        <mxCell id="2-5TmImaTZxjPBu9fnjU-51" value="" style="edgeStyle=orthogonalEdgeStyle;rounded=0;orthogonalLoop=1;jettySize=auto;html=1;" edge="1" parent="1" source="2-5TmImaTZxjPBu9fnjU-45" target="2-5TmImaTZxjPBu9fnjU-50">
          <mxGeometry relative="1" as="geometry" />
        </mxCell>
        <mxCell id="2-5TmImaTZxjPBu9fnjU-52" value="sim" style="edgeLabel;html=1;align=center;verticalAlign=middle;resizable=0;points=[];" vertex="1" connectable="0" parent="2-5TmImaTZxjPBu9fnjU-51">
          <mxGeometry x="0.05" y="-3" relative="1" as="geometry">
            <mxPoint as="offset" />
          </mxGeometry>
        </mxCell>
        <mxCell id="2-5TmImaTZxjPBu9fnjU-45" value="execução do comando" style="whiteSpace=wrap;html=1;fontStyle=0;startSize=30;" vertex="1" parent="1">
          <mxGeometry x="270" y="1700" width="120" height="60" as="geometry" />
        </mxCell>
        <mxCell id="2-5TmImaTZxjPBu9fnjU-47" value="passa mensagem de erro" style="whiteSpace=wrap;html=1;fontStyle=0;startSize=30;" vertex="1" parent="1">
          <mxGeometry x="470" y="1700" width="120" height="60" as="geometry" />
        </mxCell>
        <mxCell id="2-5TmImaTZxjPBu9fnjU-53" style="edgeStyle=orthogonalEdgeStyle;rounded=0;orthogonalLoop=1;jettySize=auto;html=1;" edge="1" parent="1" target="2-5TmImaTZxjPBu9fnjU-2">
          <mxGeometry relative="1" as="geometry">
            <mxPoint x="95" y="1700" as="sourcePoint" />
            <mxPoint x="245" y="800" as="targetPoint" />
            <Array as="points">
              <mxPoint x="95" y="870" />
              <mxPoint x="245" y="870" />
              <mxPoint x="245" y="800" />
            </Array>
          </mxGeometry>
        </mxCell>
        <mxCell id="2-5TmImaTZxjPBu9fnjU-50" value="realizo o cadastro e informo o usuario que cadastro foi realizado&amp;nbsp;" style="whiteSpace=wrap;html=1;fontStyle=0;startSize=30;" vertex="1" parent="1">
          <mxGeometry x="70" y="1700" width="120" height="60" as="geometry" />
        </mxCell>
      </root>
    </mxGraphModel>
  </diagram>
</mxfile>
